<?xml version="1.0" encoding="UTF-8" standalone="no"?>
<!-- Created with Inkscape (http://www.inkscape.org/) -->

<svg
   xmlns:dc="http://purl.org/dc/elements/1.1/"
   xmlns:cc="http://creativecommons.org/ns#"
   xmlns:rdf="http://www.w3.org/1999/02/22-rdf-syntax-ns#"
   xmlns:svg="http://www.w3.org/2000/svg"
   xmlns="http://www.w3.org/2000/svg"
   xmlns:xlink="http://www.w3.org/1999/xlink"
   xmlns:sodipodi="http://sodipodi.sourceforge.net/DTD/sodipodi-0.dtd"
   xmlns:inkscape="http://www.inkscape.org/namespaces/inkscape"
   width="124"
   height="40"
   viewBox="0 0 123.99999 40"
   id="svg4183"
   version="1.1"
   inkscape:version="0.91 r13725"
   sodipodi:docname="blit_logo.svg">
  <defs
     id="defs4185">
    <linearGradient
       id="linearGradient4726"
       inkscape:collect="always">
      <stop
         id="stop4728"
         offset="0"
         style="stop-color:#2ca1f2;stop-opacity:1" />
      <stop
         id="stop4730"
         offset="1"
         style="stop-color:#003be3;stop-opacity:1" />
    </linearGradient>
    <linearGradient
       inkscape:collect="always"
       xlink:href="#linearGradient4726"
       id="linearGradient4968"
       x1="1152.7212"
       y1="233743.94"
       x2="1152.7212"
       y2="234170.61"
       gradientUnits="userSpaceOnUse"
       gradientTransform="matrix(0.99591526,0,0,1,39.506398,4.857343)" />
    <linearGradient
       inkscape:collect="always"
       xlink:href="#linearGradient4726"
       id="linearGradient6216"
       gradientUnits="userSpaceOnUse"
       x1="732.85699"
       y1="-26809.639"
       x2="732.85699"
       y2="-26088.211" />
    <mask
       maskUnits="userSpaceOnUse"
       id="mask6212">
      <path
         id="path6214"
         d="m -6.1035156e-5,-26758.211 1599.999961035156,0 0,500 -1599.999961035156,0 z"
         style="fill:url(#linearGradient6216);fill-opacity:1;stroke:none;stroke-width:5;stroke-linecap:round;stroke-linejoin:miter;stroke-miterlimit:4;stroke-dasharray:20, 20;stroke-dashoffset:0;stroke-opacity:0.19607843"
         inkscape:connector-curvature="0" />
    </mask>
  </defs>
  <sodipodi:namedview
     id="base"
     pagecolor="#ffffff"
     bordercolor="#666666"
     borderopacity="1.0"
     inkscape:pageopacity="0"
     inkscape:pageshadow="2"
     inkscape:zoom="1.979899"
     inkscape:cx="55.191176"
     inkscape:cy="-14.768865"
     inkscape:document-units="px"
     inkscape:current-layer="layer1"
     showgrid="false"
     units="px"
     showguides="false"
     inkscape:guide-bbox="true"
     inkscape:window-width="1920"
     inkscape:window-height="1028"
     inkscape:window-x="0"
     inkscape:window-y="1"
     inkscape:window-maximized="0"
     guidetolerance="10000"
     gridtolerance="10">
    <inkscape:grid
       type="xygrid"
       id="grid4884"
       empspacing="6"
       spacingx="3.9999998"
       spacingy="4" />
  </sodipodi:namedview>
  <metadata
     id="metadata4188">
    <rdf:RDF>
      <cc:Work
         rdf:about="">
        <dc:format>image/svg+xml</dc:format>
        <dc:type
           rdf:resource="http://purl.org/dc/dcmitype/StillImage" />
        <dc:title></dc:title>
      </cc:Work>
    </rdf:RDF>
  </metadata>
  <g
     inkscape:label="Layer 1"
     inkscape:groupmode="layer"
     id="layer1"
     transform="translate(0,-1012.36)">
    <g
       id="g4986"
       transform="matrix(0.1142348,0,0,0.1142348,-119.34276,-25691.101)"
       inkscape:export-filename="/Users/justinmartin/Downloads/blit_landing.png"
       inkscape:export-xdpi="280"
       inkscape:export-ydpi="280">
      <path
         style="fill:#ffffff;fill-opacity:0.92528734;stroke:none;stroke-width:0;stroke-miterlimit:4;stroke-dasharray:none;stroke-opacity:1"
         d="m 1418.1476,233759.43 0,225.07 0,7.91 0,67.18 c 0,27.69 22.293,49.99 49.993,49.99 l 75.0921,0 c 27.6999,0 49.9929,-22.3 49.9929,-49.99 l 0,-75.09 c 0,-27.7 -22.293,-50 -49.9929,-50 l -37.5461,0 0,43.77 18.773,0 c 13.8501,0 24.9965,11.15 24.9965,24.99 l 0,37.54 c 0,13.85 -11.1464,24.99 -24.9965,24.99 l -37.546,0 c -13.85,0 -24.9965,-11.14 -24.9965,-24.99 l 0,-32.75 0,-4.79 0,-68.33 0,-119.22 0,-56.28 -43.7695,0 z"
         id="rect4917"
         inkscape:connector-curvature="0" />
      <rect
         style="fill:#ffffff;fill-opacity:0.92528734;stroke:none;stroke-width:5;stroke-linecap:round;stroke-linejoin:miter;stroke-miterlimit:4;stroke-dasharray:none;stroke-opacity:1"
         id="rect4936"
         width="43.769501"
         height="350.15601"
         x="1701.0165"
         y="233759.42" />
      <rect
         y="233890.73"
         x="1852.577"
         height="218.8475"
         width="43.769501"
         id="rect4938"
         style="fill:#ffffff;fill-opacity:0.92528734;stroke:none;stroke-width:5;stroke-linecap:round;stroke-linejoin:miter;stroke-miterlimit:4;stroke-dasharray:none;stroke-opacity:1" />
      <path
         style="fill:#ffffff;fill-opacity:0.92528734;stroke:none;stroke-width:0;stroke-miterlimit:4;stroke-dasharray:none;stroke-opacity:1"
         d="m 2004.1374,233890.72 0,0 0,43.76 0,50.01 0,7.91 0,67.18 c 0,27.69 22.293,49.99 49.993,49.99 l 73.0404,0 0,-43.89 c -0.3204,0 -0.6172,0.1 -0.9404,0.1 l -53.327,0 c -13.8501,0 -24.9965,-11.15 -24.9965,-25 l 0,-32.74 0,-4.78 0,-68.35 0,-0.42 78.7851,0 0,-43.77 -78.7851,0 -43.7695,0 z"
         id="path4940"
         inkscape:connector-curvature="0" />
      <path
         style="fill:url(#linearGradient4968);fill-opacity:1;stroke:none;stroke-width:5;stroke-linecap:round;stroke-linejoin:miter;stroke-miterlimit:4;stroke-dasharray:none;stroke-opacity:1"
         d="m 1048.8168,233803.2 c 0,0 -2.4188,109.78 0,182.61 0,44.32 35.5352,80 79.6741,80 l 102.1916,0 c 44.1389,0 79.6741,-35.68 79.6741,-80 l 0,-102.61 c 0,-44.32 -35.5352,-80 -79.6741,-80 l -181.8657,0 z m 43.4104,43.76 121.2381,0 c 29.4261,0 53.1218,23.79 53.1218,53.33 l 0,68.42 c 0,29.57 -23.6957,53.33 -53.1218,53.33 l -68.1163,0 c -29.4258,0 -53.1217,-23.78 -53.1218,-53.33 -1.6122,-48.53 -6e-4,-121.72 0,-121.75 z"
         id="rect4960"
         inkscape:connector-curvature="0" />
    </g>
  </g>
</svg>
